{
  "accessors": [
    {
      "bufferView": 2,
      "componentType": 5126,
      "count": 2166,
      "max": [
        0.6288824081420898,
        0.8431848883628845,
        0.8390067219734192
      ],
      "min": [
        -0.8431848287582397,
        -0.8431848287582397,
        -0.8390067219734192
      ],
      "type": "VEC3"
    },
    {
      "bufferView": 2,
      "byteOffset": 25992,
      "componentType": 5126,
      "count": 2166,
      "max": [
        0.9987748861312866,
        1.0,
        0.9995974898338318
      ],
      "min": [
        -1.0,
        -1.0,
        -0.999606192111969
      ],
      "type": "VEC3"
    },
    {
      "bufferView": 1,
      "componentType": 5126,
      "count": 2166,
      "max": [
        0.8750002384185791,
        1.000000238418579
      ],
      "min": [
        0.1250000149011612,
        0.0
      ],
      "type": "VEC2"
    },
    {
      "bufferView": 0,
      "componentType": 5125,
      "count": 11796,
      "type": "SCALAR"
    },
    {
      "bufferView": 2,
      "byteOffset": 51984,
      "componentType": 5126,
      "count": 4352,
      "max": [
        0.9276490211486816,
        -1.5832583904266357,
        0.9583330750465393
      ],
      "min": [
        -0.9276483654975891,
        -1.5961854457855225,
        -4.960134029388428
      ],
      "type": "VEC3"
    },
    {
      "bufferView": 2,
      "byteOffset": 104208,
      "componentType": 5126,
      "count": 4352,
      "max": [
        0.25873398780822754,
        1.0,
        0.09822609275579453
      ],
      "min": [
        -0.25873687863349915,
        -1.0,
        -0.09822644293308258
      ],
      "type": "VEC3"
    },
    {
      "bufferView": 1,
      "byteOffset": 17328,
      "componentType": 5126,
      "count": 4352,
      "max": [
        1.0000001192092896,
        1.0000001192092896
      ],
      "min": [
        0.0,
        0.0
      ],
      "type": "VEC2"
    },
    {
      "bufferView": 0,
      "byteOffset": 47184,
      "componentType": 5125,
      "count": 6528,
      "type": "SCALAR"
    },
    {
      "bufferView": 2,
      "byteOffset": 156432,
      "componentType": 5126,
      "count": 169,
      "max": [
        0.5098258256912231,
        0.48213064670562744,
        0.48213064670562744
      ],
      "min": [
        0.5098257064819336,
        -0.48213064670562744,
        -0.48213064670562744
      ],
      "type": "VEC3"
    },
    {
      "bufferView": 2,
      "byteOffset": 158460,
      "componentType": 5126,
      "count": 169,
      "max": [
        1.0,
        2.3738016352581326e-06,
        6.7066912379232235e-06
      ],
      "min": [
        1.0,
        -2.3738068648526678e-06,
        -4.471122338145506e-06
      ],
      "type": "VEC3"
    },
    {
      "bufferView": 1,
      "byteOffset": 52144,
      "componentType": 5126,
      "count": 169,
      "max": [
        0.5872246623039246,
        0.7122247219085693
      ],
      "min": [
        0.4127753973007202,
        0.5377753973007202
      ],
      "type": "VEC2"
    },
    {
      "bufferView": 0,
      "byteOffset": 73296,
      "componentType": 5125,
      "count": 864,
      "type": "SCALAR"
    },
    {
      "bufferView": 2,
      "byteOffset": 160488,
      "componentType": 5126,
      "count": 24316,
      "max": [
        1.0400017499923706,
        0.572690486907959,
        0.9813055396080017
      ],
      "min": [
        -0.98333340883255,
        -0.572690486907959,
        -4.634122371673584
      ],
      "type": "VEC3"
    },
    {
      "bufferView": 2,
      "byteOffset": 452280,
      "componentType": 5126,
      "count": 24316,
      "max": [
        0.9996877908706665,
        0.9999998211860657,
        0.9999333620071411
      ],
      "min": [
        -0.9995677471160889,
        -0.9999971985816956,
        -0.9999823570251465
      ],
      "type": "VEC3"
    },
    {
      "bufferView": 1,
      "byteOffset": 53496,
      "componentType": 5126,
      "count": 24316,
      "max": [
        0.8750001192092896,
        1.0000001192092896
      ],
      "min": [
        0.125,
        0.0
      ],
      "type": "VEC2"
    },
    {
      "bufferView": 0,
      "byteOffset": 76752,
      "componentType": 5125,
      "count": 36480,
      "type": "SCALAR"
    }
  ],
  "asset": {
    "extras": {
      "author": "coffeehook (https://sketchfab.com/coffeehook)",
      "license": "CC-BY-4.0 (http://creativecommons.org/licenses/by/4.0/)",
      "source": "https://sketchfab.com/3d-models/robot-3f41323f46ac4759a936ea3373531279",
      "title": "ROBOT"
    },
    "generator": "Sketchfab-14.66.0",
    "version": "2.0"
  },
  "bufferViews": [
    {
      "buffer": 0,
      "byteLength": 222672,
      "name": "floatBufferViews",
      "target": 34963
    },
    {
      "buffer": 0,
      "byteLength": 248024,
      "byteOffset": 222672,
      "byteStride": 8,
      "name": "floatBufferViews",
      "target": 34962
    },
    {
      "buffer": 0,
      "byteLength": 744072,
      "byteOffset": 470696,
      "byteStride": 12,
      "name": "floatBufferViews",
      "target": 34962
    }
  ],
  "buffers": [
    {
      "byteLength": 1214768,
      "uri": "scene.bin"
    }
  ],
  "materials": [
    {
      "doubleSided": true,
      "name": "Material"
    },
    {
      "doubleSided": true,
      "emissiveFactor": [
        0.0,
        0.267602,
        0.826397
      ],
      "name": "Material.001",
      "pbrMetallicRoughness": {
        "baseColorFactor": [
          0.8,
          0.8,
          0.8,
          1.0
        ],
        "metallicFactor": 0.0,
        "roughnessFactor": 0.5
      }
    },
    {
      "doubleSided": true,
      "name": "Material.002",
      "pbrMetallicRoughness": {
        "baseColorFactor": [
          0.0,
          0.0,
          0.0,
          1.0
        ],
        "metallicFactor": 0.0
      }
    }
  ],
  "meshes": [
    {
      "name": "Object_0",
      "primitives": [
        {
          "attributes": {
            "NORMAL": 1,
            "POSITION": 0,
            "TEXCOORD_0": 2
          },
          "indices": 3,
          "material": 0,
          "mode": 4
        }
      ]
    },
    {
      "name": "Object_1",
      "primitives": [
        {
          "attributes": {
            "NORMAL": 5,
            "POSITION": 4,
            "TEXCOORD_0": 6
          },
          "indices": 7,
          "material": 1,
          "mode": 4
        }
      ]
    },
    {
      "name": "Object_2",
      "primitives": [
        {
          "attributes": {
            "NORMAL": 9,
            "POSITION": 8,
            "TEXCOORD_0": 10
          },
          "indices": 11,
          "material": 2,
          "mode": 4
        }
      ]
    },
    {
      "name": "Object_3",
      "primitives": [
        {
          "attributes": {
            "NORMAL": 13,
            "POSITION": 12,
            "TEXCOORD_0": 14
          },
          "indices": 15,
          "material": 0,
          "mode": 4
        }
      ]
    }
  ],
  "nodes": [
    {
      "children": [
        1
      ],
      "matrix": [
        1.0,
        0.0,
        0.0,
        0.0,
        0.0,
        2.220446049250313e-16,
        -1.0,
        0.0,
        0.0,
        1.0,
        2.220446049250313e-16,
        0.0,
        0.0,
        0.0,
        0.0,
        1.0
      ],
      "name": "Sketchfab_model"
    },
    {
      "children": [
        2
      ],
      "name": "root"
    },
    {
      "children": [
        3,
        5,
        7,
        9
      ],
      "matrix": [
        1.0,
        0.0,
        0.0,
        0.0,
        0.0,
        2.220446049250313e-16,
        1.0,
        0.0,
        0.0,
        -1.0,
        2.220446049250313e-16,
        0.0,
        0.0,
        0.0,
        0.0,
        1.0
      ],
      "name": "GLTF_SceneRootNode"
    },
    {
      "children": [
        4
      ],
      "matrix": [
        1.0,
        0.0,
        0.0,
        0.0,
        0.0,
        1.0,
        0.0,
        0.0,
        0.0,
        0.0,
        1.0,
        0.0,
        0.0,
        0.07178334891796112,
        0.0,
        1.0
      ],
      "name": "Cube_0"
    },
    {
      "mesh": 0,
      "name": "Object_4"
    },
    {
      "children": [
        6
      ],
      "matrix": [
        2.594839598239364e-08,
        0.15391658246516962,
        0.0,
        0.0,
        -0.15391658246516962,
        2.594839598239364e-08,
        0.0,
        0.0,
        0.0,
        0.0,
        0.10047978162765503,
        0.0,
        0.3108281195163727,
        0.110248863697052,
        0.2010497897863388,
        1.0
      ],
      "name": "Plane_2"
    },
    {
      "mesh": 1,
      "name": "Object_6"
    },
    {
      "children": [
        8
      ],
      "matrix": [
        1.0,
        0.0,
        0.0,
        0.0,
        0.0,
        1.0,
        0.0,
        0.0,
        0.0,
        0.0,
        1.0,
        0.0,
        0.0,
        0.07178334891796112,
        0.0,
        1.0
      ],
      "name": "Cube.001_3"
    },
    {
      "mesh": 2,
      "name": "Object_8"
    },
    {
      "children": [
        10
      ],
      "matrix": [
        0.3052772879600525,
        0.0,
        0.0,
        0.0,
        0.0,
        0.1613796353340149,
        0.0,
        0.0,
        0.0,
        0.0,
        0.1613796353340149,
        0.0,
        0.0,
        -0.8901314735412598,
        0.2597272992134094,
        1.0
      ],
      "name": "Cube.002_9"
    },
    {
      "mesh": 3,
      "name": "Object_10"
    }
  ],
  "scene": 0,
  "scenes": [
    {
      "name": "Sketchfab_Scene",
      "nodes": [
        0
      ]
    }
  ]
}
